# xmcd
#
# Track frame offsets:
# 150
# 19280
# 43267
# 60067
# 82062
# 101332
# 118992
# 137355
# 155107
# 180052
# 196372
# 215270
# 229362
# 249375
# 271965
#
# Disc length: 3906 seconds
#
#
# Revision: 4
# Processed by: cddbd v1.5.2PL0 Copyright (c) Steve Scherf et al.
# Submitted via: FreeRIP 2.96 
#
DISCID=c90f400f
DTITLE=2Pac - Until The End Of Time
DYEAR=1900
DGENRE=Gangsta Rap
TTITLE0=Ballad Of A Dead Soulja
TTITLE1=F*** Friendz
TTITLE2=Lil' Homies
TTITLE3=Let Em Have It
TTITLE4=Good Life
TTITLE5=Letter 2 My Unborn
TTITLE6=Breathin
TTITLE7=Happy Home
TTITLE8=All Out
TTITLE9=F***** Wit The wrong N****
TTITLE10=Thug N U Thug N Me (Remix)
TTITLE11=Everything They Owe
TTITLE12=Until The End Of Time
TTITLE13=M.O.B.
TTITLE14=World Wide Mob Figgaz
EXTD=
EXTT0=
EXTT1=
EXTT2=
EXTT3=
EXTT4=
EXTT5=
EXTT6=
EXTT7=
EXTT8=
EXTT9=
EXTT10=
EXTT11=
EXTT12=
EXTT13=
EXTT14=
PLAYORDER=
